<svg width="97" height="31" viewBox="0 0 97 31" fill="none" xmlns="http://www.w3.org/2000/svg">
<path fill-rule="evenodd" clip-rule="evenodd" d="M15.8099 0C24.5415 0 31.6199 6.93959 31.6199 15.5C31.6199 24.0604 24.5415 31 15.8099 31C7.16567 31 0.141732 24.1985 0.00211807 15.7563L0 15.5H2.66674C2.66674 22.6165 8.55115 28.3855 15.8099 28.3855C23.0687 28.3855 28.9532 22.6165 28.9532 15.5C28.9532 8.45468 23.1858 2.72997 16.0273 2.61618L15.8099 2.61446V0ZM88.5777 10.6406C93.7368 10.6406 97 14.3884 97 19.233C97 24.0471 93.7368 27.8253 88.5777 27.8253C83.4187 27.8253 80.0933 24.0471 80.0933 19.233C80.0933 14.3884 83.4187 10.6406 88.5777 10.6406ZM55.3839 4.66867V8.26405H42.7661V13.8704H53.9232V17.2525H42.7661V23.651H55.6636V27.3378H38.4772V4.66867H55.3839ZM62.3294 4.66867V27.3378H58.3514V4.66867H62.3294ZM65.1982 4.66867H69.1141V13.4438C69.1141 14.9063 69.0315 16.3149 68.9959 17.263L68.9898 17.4353L75.2366 11.0672H79.9295L73.8381 17.0087L80.6443 27.3378H76.0446L71.0721 19.5377L69.1141 21.4572V27.3378H65.1982V4.66867ZM15.9052 4.85542C21.8937 4.85542 26.7597 9.5673 26.8564 15.4158L26.8579 15.5934H24.1911C24.1911 11.1069 20.4814 7.46988 15.9052 7.46988C11.329 7.46988 7.61925 11.1069 7.61925 15.5934C7.61925 20.035 11.2552 23.644 15.7682 23.7158L15.9052 23.7169V26.3313C9.85619 26.3313 4.95251 21.5238 4.95251 15.5934C4.95251 9.66297 9.85619 4.85542 15.9052 4.85542ZM88.5466 13.5048C85.6253 13.5048 84.1024 15.9423 84.1024 19.233C84.1024 22.4932 85.6253 24.9003 88.5466 24.9003C91.4369 24.9003 92.9909 22.4932 92.9909 19.233C92.9909 15.9423 91.4369 13.5048 88.5466 13.5048ZM15.9052 9.5241C19.3242 9.5241 22.0958 12.2414 22.0958 15.5934C22.0958 18.9453 19.3242 21.6627 15.9052 21.6627C12.4862 21.6627 9.71455 18.9453 9.71455 15.5934C9.71455 12.2414 12.4862 9.5241 15.9052 9.5241ZM15.9052 12.1386C13.959 12.1386 12.3813 13.6853 12.3813 15.5934C12.3813 17.5014 13.959 19.0482 15.9052 19.0482C17.8514 19.0482 19.4291 17.5014 19.4291 15.5934C19.4291 13.6853 17.8514 12.1386 15.9052 12.1386Z" fill="#162E8B"/>
</svg>
